<svg xmlns="http://www.w3.org/2000/svg" viewBox="0 0 19 19" id="icon">
	<style>
		tspan { white-space:pre }
		.shp0 { fill: #ffffff } 
	</style>
	<g id="Partners">
		<g id="Partner 1">
			<path id="Shape 128" class="shp0" d="M16.62 5.15L10.94 5.15L13.18 2.47C13.21 2.47 13.24 2.49 13.28 2.49C13.65 2.49 13.95 2.19 13.95 1.82C13.95 1.45 13.65 1.15 13.28 1.15C12.91 1.15 12.61 1.45 12.61 1.82C12.61 1.9 12.63 1.98 12.66 2.05L10.07 5.15L9.82 5.15L7.23 2.05C7.26 1.98 7.28 1.9 7.28 1.82C7.28 1.45 6.98 1.15 6.61 1.15C6.24 1.15 5.94 1.45 5.94 1.82C5.94 2.19 6.24 2.49 6.61 2.49C6.65 2.49 6.68 2.47 6.71 2.47L8.96 5.15L3.28 5.15C2.54 5.15 1.94 5.75 1.94 6.48L1.94 15.8C1.94 16.53 2.54 17.13 3.28 17.13L16.62 17.13C17.35 17.13 17.95 16.53 17.95 15.8L17.95 6.48C17.95 5.75 17.35 5.15 16.62 5.15ZM13.95 14.47C13.95 15.2 13.35 15.8 12.61 15.8L4.61 15.8C3.87 15.8 3.28 15.2 3.28 14.47L3.28 7.81C3.28 7.08 3.87 6.48 4.61 6.48L12.61 6.48C13.35 6.48 13.95 7.08 13.95 7.81L13.95 14.47ZM15.91 8.52C15.39 8.52 14.96 8.09 14.96 7.57C14.96 7.04 15.39 6.62 15.91 6.62C16.44 6.62 16.87 7.04 16.87 7.57C16.87 8.09 16.44 8.52 15.91 8.52Z" />
		</g>
	</g>
</svg>