<svg xmlns="http://www.w3.org/2000/svg" 
	viewBox="0 0 15 19" id="icon">
	<style>
		tspan { white-space:pre }
		.shp0 { fill: #ffffff } 
	</style>
	<g id="Partners">
		<g id="Partner 2">
			<path id="Shape 155" class="shp0" d="M13.22 15.01L10.15 6.75L10.15 4.31C10.73 4.11 11.15 3.57 11.15 2.93L11.15 2.53C11.15 1.72 10.49 1.07 9.67 1.07L5.3 1.07C4.48 1.07 3.82 1.72 3.82 2.53L3.82 2.93C3.82 3.57 4.23 4.11 4.81 4.31L4.81 6.75L1.75 15C1.57 15.45 1.62 15.96 1.89 16.37C2.17 16.77 2.63 17.02 3.12 17.02L11.84 17.02C12.34 17.02 12.8 16.77 13.07 16.37C13.35 15.96 13.4 15.45 13.22 15.01ZM5.11 13.14C5.11 12.86 5.33 12.64 5.61 12.64C5.89 12.64 6.12 12.86 6.12 13.14C6.12 13.42 5.89 13.64 5.61 13.64C5.33 13.64 5.11 13.42 5.11 13.14ZM8.36 13.57C8.84 13.57 9.23 13.96 9.23 14.44C9.23 14.91 8.84 15.3 8.36 15.3C7.88 15.3 7.49 14.91 7.49 14.44C7.49 13.96 7.88 13.57 8.36 13.57ZM7.62 11.68C7.62 11.34 7.9 11.06 8.25 11.06C8.59 11.06 8.87 11.34 8.87 11.68C8.87 12.03 8.59 12.3 8.25 12.3C7.9 12.3 7.62 12.03 7.62 11.68ZM5.79 6.92L5.79 3.91L5.78 3.43L5.3 3.43C5.02 3.43 4.79 3.2 4.79 2.93L4.79 2.53C4.79 2.26 5.02 2.04 5.3 2.04L9.67 2.04C9.95 2.04 10.17 2.26 10.17 2.53L10.17 2.93C10.17 3.2 9.95 3.43 9.67 3.43L9.18 3.43L9.18 6.92L10.03 9.23C10.02 9.24 10.01 9.25 10 9.26C9.36 9.92 4.69 10 4.69 10L4.65 10L5.79 6.92ZM7.14 8.79C7.52 8.79 7.82 8.48 7.82 8.11C7.82 7.74 7.52 7.44 7.14 7.44C6.77 7.44 6.46 7.74 6.46 8.11C6.46 8.48 6.77 8.79 7.14 8.79Z" />
		</g>
	</g>
</svg>