<svg xmlns="http://www.w3.org/2000/svg" viewBox="0 0 19 19" id="icon">
	<style>
		tspan { white-space:pre }
		.shp0 { fill: #ffffff } 
	</style>
	<g id="Partners">
		<g id="Partner 3">
			<path id="Shape 153" class="shp0" d="M15.27 15.43C14.67 15.39 13.98 15.35 13.23 15.33C13.91 14.74 14.49 13.97 14.91 13.08C15.11 13.29 15.37 13.44 15.66 13.51C15.78 13.54 15.91 13.56 16.04 13.56C16.33 13.56 16.62 13.48 16.87 13.32C17.24 13.1 17.5 12.74 17.6 12.32C17.7 11.9 17.63 11.46 17.41 11.1C17.03 10.48 16.31 10.21 15.65 10.37C15.68 10.08 15.7 9.79 15.7 9.49C15.7 9.18 15.45 8.93 15.14 8.93L4.79 8.93C4.48 8.93 4.23 9.18 4.23 9.49C4.23 11.91 5.21 14.04 6.69 15.33C5.95 15.35 5.26 15.39 4.66 15.43C2.57 15.58 1.96 15.72 1.96 16.36C1.96 17.01 2.57 17.15 4.66 17.3C6.08 17.4 7.96 17.45 9.97 17.45C11.97 17.45 13.85 17.4 15.27 17.3C17.36 17.15 17.97 17.01 17.97 16.36C17.97 15.72 17.36 15.58 15.27 15.43ZM15.54 11.14C15.54 11.13 15.55 11.13 15.55 11.13C15.99 10.86 16.57 11 16.84 11.45C16.97 11.66 17 11.91 16.95 12.16C16.89 12.4 16.74 12.61 16.52 12.74C16.31 12.87 16.06 12.91 15.82 12.85C15.57 12.79 15.37 12.64 15.24 12.43C15.23 12.41 15.21 12.4 15.2 12.38C15.34 11.99 15.45 11.57 15.54 11.14ZM5.37 10.06L14.56 10.06C14.34 13.1 12.36 15.48 9.97 15.48C7.57 15.48 5.59 13.1 5.37 10.06ZM8.93 7.78L8.97 7.78C9.1 7.78 9.24 7.71 9.32 7.6C9.42 7.48 9.44 7.32 9.39 7.17C9.38 7.16 8.96 5.92 9.51 4.88C10.1 3.89 10.3 3.09 10.08 2.51C9.89 1.99 9.47 1.85 9.42 1.84C9.18 1.77 8.93 1.91 8.86 2.14C8.79 2.38 8.93 2.64 9.14 2.7C9.15 2.7 9.21 2.73 9.24 2.83C9.29 2.97 9.35 3.4 8.76 4.39L8.74 4.42C8.69 4.5 8.64 4.58 8.59 4.66C7.91 5.71 7.71 6.54 7.98 7.12C8.21 7.59 8.68 7.76 8.93 7.78ZM11.31 7.86L11.35 7.86C11.47 7.86 11.6 7.8 11.68 7.7C11.77 7.58 11.79 7.43 11.74 7.29C11.74 7.29 11.5 6.58 11.81 6.01C12.2 5.35 12.32 4.84 12.17 4.43C12.03 4.05 11.73 3.95 11.66 3.93C11.45 3.86 11.2 4 11.14 4.21C11.11 4.32 11.12 4.44 11.17 4.54C11.23 4.64 11.32 4.71 11.42 4.74C11.4 4.73 11.38 4.73 11.38 4.73C11.39 4.75 11.45 4.96 11.1 5.55L11.07 5.59C11.05 5.63 11.02 5.67 10.99 5.72C10.54 6.42 10.41 6.96 10.61 7.38C10.77 7.7 11.08 7.84 11.31 7.86Z" />
		</g>
	</g>
</svg>