<svg xmlns="http://www.w3.org/2000/svg" viewBox="0 0 19 18" width="19" height="18">
	<style>
		tspan { white-space:pre }
		.shp0 { fill: #ffffff } 
	</style>
	<g id="Partners">
		<g id="Partner 4">
			<path id="Shape 170" class="shp0" d="M17.45 1.72C17.4 1.68 17.33 1.67 17.28 1.7L1.6 9.63C1.55 9.66 1.51 9.73 1.52 9.79C1.52 9.85 1.57 9.91 1.63 9.93L6.59 11.49C6.64 11.51 6.7 11.5 6.75 11.46L14.29 5.07L8.5 11.86C8.46 11.91 8.45 11.96 8.46 12.01C8.48 12.06 8.52 12.1 8.57 12.12L14.39 13.88C14.41 13.88 14.43 13.88 14.44 13.88C14.47 13.88 14.5 13.88 14.52 13.86C14.56 13.84 14.59 13.8 14.6 13.76L17.51 1.88C17.52 1.82 17.5 1.75 17.45 1.72ZM10.28 13.86L8.67 13.37C8.62 13.35 8.56 13.36 8.52 13.39C8.48 13.42 8.46 13.47 8.46 13.52L8.46 16.53C8.46 16.6 8.51 16.66 8.57 16.68C8.59 16.68 8.6 16.69 8.62 16.69C8.67 16.69 8.73 16.66 8.76 16.61L10.36 14.09C10.39 14.05 10.4 14 10.38 13.95C10.36 13.91 10.32 13.87 10.28 13.86Z" />
		</g>
	</g>
</svg>